<svg width="95" height="20" viewBox="0 0 95 20" fill="none" xmlns="http://www.w3.org/2000/svg">
<g clip-path="url(#clip0_40_389)">
<path d="M10.4529 19.8895C16.1682 19.8895 20.8013 15.4897 20.8013 10.0622C20.8013 4.63464 16.1682 0.234772 10.4529 0.234772C4.73764 0.234772 0.104492 4.63464 0.104492 10.0622C0.104492 15.4897 4.73764 19.8895 10.4529 19.8895Z" fill="#8E8E8E"/>
<path fill-rule="evenodd" clip-rule="evenodd" d="M25.3 1.87666L25.3 -0.833344L39.4174 -0.833344L39.4174 1.87666L33.968 1.87666L33.968 17.9178L30.8058 17.9178L30.8058 1.87666L25.3 1.87666ZM40.1872 5.70902C41.166 4.52282 42.7848 3.9297 45.0436 3.9297C47.3023 3.9297 48.9116 4.52282 49.8715 5.70902C50.8504 6.89522 51.3398 8.67451 51.3398 11.0469C51.3398 13.4193 50.8692 15.2077 49.9282 16.4122C48.9871 17.6166 47.3589 18.2189 45.0436 18.2189C42.7284 18.2189 41.1002 17.6166 40.1589 16.4122C39.2178 15.2077 38.7473 13.4193 38.7473 11.0469C38.7473 8.67451 39.2272 6.89522 40.1872 5.70902ZM42.5024 14.6055C42.9355 15.3355 43.7825 15.7005 45.0436 15.7005C46.3048 15.7005 47.1518 15.3355 47.5846 14.6055C48.0177 13.8756 48.2339 12.6802 48.2339 11.0195C48.2339 9.35887 47.9988 8.18179 47.5282 7.48831C47.0766 6.79483 46.2482 6.44812 45.0436 6.44812C43.8388 6.44812 43.0013 6.79483 42.5308 7.48831C42.0788 8.18179 41.8531 9.35887 41.8531 11.0195C41.8531 12.6802 42.0696 13.8756 42.5024 14.6055ZM54.397 17.9178L57.4745 17.9178L57.4745 12.3335L59.3098 12.1419L62.7543 17.9178L66.2272 17.9178L61.9354 10.6363L66.0012 4.23082L62.5567 4.23082L59.2249 9.56872L57.4745 9.73298L57.4745 -0.833339L54.397 -0.833339L54.397 17.9178ZM67.1877 4.23082L70.2088 4.23082L73.2017 15.372L73.964 15.372L76.9569 4.23082L80.0062 4.23082L75.4556 20.8333L72.4754 20.8333L73.3147 17.9178L70.8865 17.9178L67.1877 4.23082ZM87.7537 3.9297C85.495 3.9297 83.8763 4.52282 82.8975 5.70902C81.9375 6.89522 81.4575 8.67451 81.4575 11.0469C81.4575 13.4193 81.9281 15.2077 82.8692 16.4122C83.8103 17.6166 85.4384 18.2189 87.7537 18.2189C90.0689 18.2189 91.6971 17.6166 92.6384 16.4122C93.5795 15.2077 94.05 13.4193 94.05 11.0469C94.05 8.67451 93.5606 6.89522 92.5818 5.70902C91.6218 4.52282 90.0125 3.9297 87.7537 3.9297ZM87.7537 15.7005C86.4925 15.7005 85.6455 15.3355 85.2127 14.6055C84.7797 13.8756 84.5631 12.6802 84.5631 11.0195C84.5631 9.35887 84.7891 8.18179 85.2408 7.48831C85.7113 6.79483 86.5491 6.44812 87.7537 6.44812C88.9585 6.44812 89.7866 6.79483 90.2383 7.48831C90.709 8.18179 90.9442 9.35887 90.9442 11.0195C90.9442 12.6802 90.7277 13.8756 90.2949 14.6055C89.8618 15.3355 89.0148 15.7005 87.7537 15.7005Z" fill="#8E8E8E"/>
</g>
<defs>
<clipPath id="clip0_40_389">
<rect width="93.75" height="20" fill="white" transform="translate(0.300049)"/>
</clipPath>
</defs>
</svg>
